<svg xmlns="http://www.w3.org/2000/svg" xmlns:xlink="http://www.w3.org/1999/xlink" width="820" height="560"><g transform="translate(-240 -40)"><path d="M960 218c0 9.4-44.77 17-100 17s-100-7.6-100-17V82c0-9.4 44.77-17 100-17s100 7.6 100 17z" stroke="#000" stroke-width="2" fill="#fff"/><path d="M960 82c0 9.4-44.77 17-100 17s-100-7.6-100-17" stroke="#000" stroke-width="2" fill="none"/><use xlink:href="#a" transform="matrix(1,0,0,1,765,104) translate(56.525 66.60000000000001)"/><path d="M300 60h280v180H300z" stroke="#000" stroke-width="2" fill="#fff"/><path d="M300 98h280m-280 71h280" stroke="#000" stroke-width="2" fill="none"/><use xlink:href="#b" transform="matrix(1,0,0,1,308,60) translate(25.39999999999999 22.6)"/><use xlink:href="#c" transform="matrix(1,0,0,1,308,60) translate(116.25 22.6)"/><use xlink:href="#d" transform="matrix(1,0,0,1,308,60) translate(131.75 22.6)"/><path d="M260 340h360v240H260z" stroke="#000" stroke-width="2" fill="#fff"/><path d="M260 399h360m-360 54h360" stroke="#000" stroke-width="2" fill="none"/><use xlink:href="#e" transform="matrix(1,0,0,1,268,340) translate(49.75 22.799999999999997)"/><use xlink:href="#f" transform="matrix(1,0,0,1,268,340) translate(202.45 22.799999999999997)"/><use xlink:href="#g" transform="matrix(1,0,0,1,268,340) translate(110.125 44.4)"/><use xlink:href="#h" transform="matrix(1,0,0,1,272,460.7470383275261) translate(0 38)"/><use xlink:href="#i" transform="matrix(1,0,0,1,272,460.7470383275261) translate(15.5 38)"/><use xlink:href="#j" transform="matrix(1,0,0,1,272,460.7470383275261) translate(80.30000000000001 38)"/><use xlink:href="#h" transform="matrix(1,0,0,1,272,460.7470383275261) translate(0 59.6)"/><use xlink:href="#k" transform="matrix(1,0,0,1,272,460.7470383275261) translate(15.5 59.6)"/><use xlink:href="#h" transform="matrix(1,0,0,1,272,460.7470383275261) translate(0 81.20000000000002)"/><use xlink:href="#l" transform="matrix(1,0,0,1,272,460.7470383275261) translate(15.5 81.20000000000002)"/><path d="M440 240v99" stroke="#000" stroke-width="2" fill="none"/><path d="M444.64 254.27h-9.28L440 240z"/><path d="M446 255.27h-12l4.95-15.27h2.1zm-9.26-2h6.52L440 243.24zM440 339l-4.64-14.27h9.28z"/><path d="M440.73 340h-1.46L434 323.73h12zm-4-14.27l3.27 10.03 3.26-10.03z"/><path d="M680 340h360v240H680z" stroke="#000" stroke-width="2" fill="#fff"/><path d="M680 378h360M680 526h360" stroke="#000" stroke-width="2" fill="none"/><g><use xlink:href="#m" transform="matrix(1,0,0,1,688,340) translate(111.57499999999999 22.6)"/></g><g><use xlink:href="#h" transform="matrix(1,0,0,1,692,385.6) translate(0 37.69999999999999)"/><use xlink:href="#n" transform="matrix(1,0,0,1,692,385.6) translate(15.5 37.69999999999999)"/><use xlink:href="#h" transform="matrix(1,0,0,1,692,385.6) translate(0 59.29999999999999)"/><use xlink:href="#o" transform="matrix(1,0,0,1,692,385.6) translate(15.5 59.29999999999999)"/><use xlink:href="#h" transform="matrix(1,0,0,1,692,385.6) translate(0 80.9)"/><use xlink:href="#p" transform="matrix(1,0,0,1,692,385.6) translate(15.5 80.9)"/><use xlink:href="#q" transform="matrix(1,0,0,1,692,385.6) translate(0 102.5)"/><use xlink:href="#r" transform="matrix(1,0,0,1,692,385.6) translate(15.5 102.5)"/></g><g><use xlink:href="#h" transform="matrix(1,0,0,1,692,533.6411428571429) translate(0 23.1)"/><use xlink:href="#s" transform="matrix(1,0,0,1,692,533.6411428571429) translate(15.5 23.1)"/></g><path d="M580 150h178.33" stroke="#000" stroke-width="2" fill="none"/><path d="M758.33 150l-14.26 4.64v-9.28z"/><path d="M760 149.5v1l-16.93 5.5v-12zm-14.93 3.76L755.1 150l-10.03-3.26z"/><defs><path d="M30-248c118-7 216 8 213 122C240-48 200 0 122 0H30v-248zM63-27c89 8 146-16 146-99s-60-101-146-95v194" id="t"/><path d="M141-36C126-15 110 5 73 4 37 3 15-17 15-53c-1-64 63-63 125-63 3-35-9-54-41-54-24 1-41 7-42 31l-33-3c5-37 33-52 76-52 45 0 72 20 72 64v82c-1 20 7 32 28 27v20c-31 9-61-2-59-35zM48-53c0 20 12 33 32 33 41-3 63-29 60-74-43 2-92-5-92 41" id="u"/><path d="M59-47c-2 24 18 29 38 22v24C64 9 27 4 27-40v-127H5v-23h24l9-43h21v43h35v23H59v120" id="v"/><path d="M115-194c53 0 69 39 70 98 0 66-23 100-70 100C84 3 66-7 56-30L54 0H23l1-261h32v101c10-23 28-34 59-34zm-8 174c40 0 45-34 45-75 0-40-5-75-45-74-42 0-51 32-51 76 0 43 10 73 51 73" id="w"/><path d="M135-143c-3-34-86-38-87 0 15 53 115 12 119 90S17 21 10-45l28-5c4 36 97 45 98 0-10-56-113-15-118-90-4-57 82-63 122-42 12 7 21 19 24 35" id="x"/><path d="M100-194c63 0 86 42 84 106H49c0 40 14 67 53 68 26 1 43-12 49-29l28 8c-11 28-37 45-77 45C44 4 14-33 15-96c1-61 26-98 85-98zm52 81c6-60-76-77-97-28-3 7-6 17-6 28h103" id="y"/><g id="a"><use transform="matrix(0.05,0,0,0.05,0,0)" xlink:href="#t"/><use transform="matrix(0.05,0,0,0.05,12.950000000000001,0)" xlink:href="#u"/><use transform="matrix(0.05,0,0,0.05,22.950000000000003,0)" xlink:href="#v"/><use transform="matrix(0.05,0,0,0.05,27.950000000000003,0)" xlink:href="#u"/><use transform="matrix(0.05,0,0,0.05,37.95,0)" xlink:href="#w"/><use transform="matrix(0.05,0,0,0.05,47.95,0)" xlink:href="#u"/><use transform="matrix(0.05,0,0,0.05,57.95,0)" xlink:href="#x"/><use transform="matrix(0.05,0,0,0.05,66.95,0)" xlink:href="#y"/></g><path d="M33-154v-36h34v36H33zM33 0v-36h34V0H33" id="z"/><path d="M232-93c-1 65-40 97-104 97C67 4 28-28 28-90v-158h33c8 89-33 224 67 224 102 0 64-133 71-224h33v155" id="A"/><path d="M114-163C36-179 61-72 57 0H25l-1-190h30c1 12-1 29 2 39 6-27 23-49 58-41v29" id="B"/><g id="b"><use transform="matrix(0.05,0,0,0.05,0,0)" xlink:href="#t"/><use transform="matrix(0.05,0,0,0.05,12.950000000000001,0)" xlink:href="#u"/><use transform="matrix(0.05,0,0,0.05,22.950000000000003,0)" xlink:href="#v"/><use transform="matrix(0.05,0,0,0.05,27.950000000000003,0)" xlink:href="#u"/><use transform="matrix(0.05,0,0,0.05,37.95,0)" xlink:href="#z"/><use transform="matrix(0.05,0,0,0.05,42.95,0)" xlink:href="#z"/><use transform="matrix(0.05,0,0,0.05,47.95,0)" xlink:href="#A"/><use transform="matrix(0.05,0,0,0.05,60.900000000000006,0)" xlink:href="#x"/><use transform="matrix(0.05,0,0,0.05,69.9,0)" xlink:href="#y"/><use transform="matrix(0.05,0,0,0.05,79.9,0)" xlink:href="#B"/></g><path d="M18-100v-36l175-74v27L42-118l151 64v27" id="C"/><use transform="matrix(0.05,0,0,0.05,0,0)" xlink:href="#C" id="c"/><path d="M205 0l-28-72H64L36 0H1l101-248h38L239 0h-34zm-38-99l-47-123c-12 45-31 82-46 123h93" id="D"/><path d="M96-169c-40 0-48 33-48 73s9 75 48 75c24 0 41-14 43-38l32 2c-6 37-31 61-74 61-59 0-76-41-82-99-10-93 101-131 147-64 4 7 5 14 7 22l-32 3c-4-21-16-35-41-35" id="E"/><path d="M24-231v-30h32v30H24zM24 0v-190h32V0H24" id="F"/><path d="M108 0H70L1-190h34L89-25l56-165h34" id="G"/><path d="M233-177c-1 41-23 64-60 70L243 0h-38l-65-103H63V0H30v-248c88 3 205-21 203 71zM63-129c60-2 137 13 137-47 0-61-80-42-137-45v92" id="H"/><path d="M100-194c62-1 85 37 85 99 1 63-27 99-86 99S16-35 15-95c0-66 28-99 85-99zM99-20c44 1 53-31 53-75 0-43-8-75-51-75s-53 32-53 75 10 74 51 75" id="I"/><path d="M85-194c31 0 48 13 60 33l-1-100h32l1 261h-30c-2-10 0-23-3-31C134-8 116 4 85 4 32 4 16-35 15-94c0-66 23-100 70-100zm9 24c-40 0-46 34-46 75 0 40 6 74 45 74 42 0 51-32 51-76 0-42-9-74-50-73" id="J"/><g id="d"><use transform="matrix(0.05,0,0,0.05,0,0)" xlink:href="#D"/><use transform="matrix(0.05,0,0,0.05,12,0)" xlink:href="#E"/><use transform="matrix(0.05,0,0,0.05,21,0)" xlink:href="#v"/><use transform="matrix(0.05,0,0,0.05,26,0)" xlink:href="#F"/><use transform="matrix(0.05,0,0,0.05,29.950000000000003,0)" xlink:href="#G"/><use transform="matrix(0.05,0,0,0.05,38.95,0)" xlink:href="#y"/><use transform="matrix(0.05,0,0,0.05,48.95,0)" xlink:href="#H"/><use transform="matrix(0.05,0,0,0.05,61.900000000000006,0)" xlink:href="#y"/><use transform="matrix(0.05,0,0,0.05,71.9,0)" xlink:href="#E"/><use transform="matrix(0.05,0,0,0.05,80.9,0)" xlink:href="#I"/><use transform="matrix(0.05,0,0,0.05,90.9,0)" xlink:href="#B"/><use transform="matrix(0.05,0,0,0.05,96.85000000000001,0)" xlink:href="#J"/></g><path d="M115-194c55 1 70 41 70 98S169 2 115 4C84 4 66-9 55-30l1 105H24l-1-265h31l2 30c10-21 28-34 59-34zm-8 174c40 0 45-34 45-75s-6-73-45-74c-42 0-51 32-51 76 0 43 10 73 51 73" id="K"/><g id="e"><use transform="matrix(0.05,0,0,0.05,0,0)" xlink:href="#H"/><use transform="matrix(0.05,0,0,0.05,12.950000000000001,0)" xlink:href="#y"/><use transform="matrix(0.05,0,0,0.05,22.950000000000003,0)" xlink:href="#K"/><use transform="matrix(0.05,0,0,0.05,32.95,0)" xlink:href="#I"/><use transform="matrix(0.05,0,0,0.05,42.95,0)" xlink:href="#x"/><use transform="matrix(0.05,0,0,0.05,51.95,0)" xlink:href="#F"/><use transform="matrix(0.05,0,0,0.05,55.900000000000006,0)" xlink:href="#v"/><use transform="matrix(0.05,0,0,0.05,60.900000000000006,0)" xlink:href="#I"/><use transform="matrix(0.05,0,0,0.05,70.9,0)" xlink:href="#B"/><use transform="matrix(0.05,0,0,0.05,76.85000000000001,0)" xlink:href="#F"/><use transform="matrix(0.05,0,0,0.05,80.80000000000001,0)" xlink:href="#y"/><use transform="matrix(0.05,0,0,0.05,90.80000000000001,0)" xlink:href="#x"/><use transform="matrix(0.05,0,0,0.05,99.80000000000001,0)" xlink:href="#z"/><use transform="matrix(0.05,0,0,0.05,104.80000000000001,0)" xlink:href="#z"/><use transform="matrix(0.05,0,0,0.05,109.80000000000001,0)" xlink:href="#A"/><use transform="matrix(0.05,0,0,0.05,122.75,0)" xlink:href="#x"/><use transform="matrix(0.05,0,0,0.05,131.75,0)" xlink:href="#y"/><use transform="matrix(0.05,0,0,0.05,141.75,0)" xlink:href="#B"/></g><path d="M210-169c-67 3-38 105-44 169h-31v-121c0-29-5-50-35-48C34-165 62-65 56 0H25l-1-190h30c1 10-1 24 2 32 10-44 99-50 107 0 11-21 27-35 58-36 85-2 47 119 55 194h-31v-121c0-29-5-49-35-48" id="L"/><path d="M24 0v-261h32V0H24" id="M"/><path d="M117-194c89-4 53 116 60 194h-32v-121c0-31-8-49-39-48C34-167 62-67 57 0H25l-1-190h30c1 10-1 24 2 32 11-22 29-35 61-36" id="N"/><g id="f"><use transform="matrix(0.05,0,0,0.05,0,0)" xlink:href="#F"/><use transform="matrix(0.05,0,0,0.05,3.95,0)" xlink:href="#L"/><use transform="matrix(0.05,0,0,0.05,18.900000000000002,0)" xlink:href="#K"/><use transform="matrix(0.05,0,0,0.05,28.900000000000002,0)" xlink:href="#M"/><use transform="matrix(0.05,0,0,0.05,32.85,0)" xlink:href="#y"/><use transform="matrix(0.05,0,0,0.05,42.85,0)" xlink:href="#L"/><use transform="matrix(0.05,0,0,0.05,57.800000000000004,0)" xlink:href="#y"/><use transform="matrix(0.05,0,0,0.05,67.80000000000001,0)" xlink:href="#N"/><use transform="matrix(0.05,0,0,0.05,77.80000000000001,0)" xlink:href="#v"/><use transform="matrix(0.05,0,0,0.05,82.80000000000001,0)" xlink:href="#x"/></g><path d="M179-190L93 31C79 59 56 82 12 73V49c39 6 53-20 64-50L1-190h34L92-34l54-156h33" id="O"/><g id="g"><use transform="matrix(0.05,0,0,0.05,0,0)" xlink:href="#A"/><use transform="matrix(0.05,0,0,0.05,12.950000000000001,0)" xlink:href="#x"/><use transform="matrix(0.05,0,0,0.05,21.950000000000003,0)" xlink:href="#y"/><use transform="matrix(0.05,0,0,0.05,31.950000000000003,0)" xlink:href="#B"/><use transform="matrix(0.05,0,0,0.05,37.900000000000006,0)" xlink:href="#H"/><use transform="matrix(0.05,0,0,0.05,50.85000000000001,0)" xlink:href="#y"/><use transform="matrix(0.05,0,0,0.05,60.85,0)" xlink:href="#K"/><use transform="matrix(0.05,0,0,0.05,70.85000000000001,0)" xlink:href="#I"/><use transform="matrix(0.05,0,0,0.05,80.85000000000001,0)" xlink:href="#x"/><use transform="matrix(0.05,0,0,0.05,89.85000000000001,0)" xlink:href="#F"/><use transform="matrix(0.05,0,0,0.05,93.80000000000001,0)" xlink:href="#v"/><use transform="matrix(0.05,0,0,0.05,98.80000000000001,0)" xlink:href="#I"/><use transform="matrix(0.05,0,0,0.05,108.80000000000001,0)" xlink:href="#B"/><use transform="matrix(0.05,0,0,0.05,114.75,0)" xlink:href="#O"/></g><path d="M118-107v75H92v-75H18v-26h74v-75h26v75h74v26h-74" id="P"/><use transform="matrix(0.05,0,0,0.05,0,0)" xlink:href="#P" id="h"/><path d="M101-234c-31-9-42 10-38 44h38v23H63V0H32v-167H5v-23h27c-7-52 17-82 69-68v24" id="Q"/><path d="M87 75C49 33 22-17 22-94c0-76 28-126 65-167h31c-38 41-64 92-64 168S80 34 118 75H87" id="R"/><path d="M33-261c38 41 65 92 65 168S71 34 33 75H2C39 34 66-17 66-93S39-220 2-261h31" id="S"/><g id="i"><use transform="matrix(0.05,0,0,0.05,0,0)" xlink:href="#Q"/><use transform="matrix(0.05,0,0,0.05,5,0)" xlink:href="#F"/><use transform="matrix(0.05,0,0,0.05,8.95,0)" xlink:href="#N"/><use transform="matrix(0.05,0,0,0.05,18.95,0)" xlink:href="#J"/><use transform="matrix(0.05,0,0,0.05,28.950000000000003,0)" xlink:href="#R"/><use transform="matrix(0.05,0,0,0.05,34.9,0)" xlink:href="#F"/><use transform="matrix(0.05,0,0,0.05,38.85,0)" xlink:href="#J"/><use transform="matrix(0.05,0,0,0.05,48.85,0)" xlink:href="#S"/><use transform="matrix(0.05,0,0,0.05,54.800000000000004,0)" xlink:href="#z"/></g><path d="M160-131c35 5 61 23 61 61C221 17 115-2 30 0v-248c76 3 177-17 177 60 0 33-19 50-47 57zm-97-11c50-1 110 9 110-42 0-47-63-36-110-37v79zm0 115c55-2 124 14 124-45 0-56-70-42-124-44v89" id="T"/><path d="M84 4C-5 8 30-112 23-190h32v120c0 31 7 50 39 49 72-2 45-101 50-169h31l1 190h-30c-1-10 1-25-2-33-11 22-28 36-60 37" id="U"/><g id="j"><use transform="matrix(0.05,0,0,0.05,0,0)" xlink:href="#T"/><use transform="matrix(0.05,0,0,0.05,12,0)" xlink:href="#U"/><use transform="matrix(0.05,0,0,0.05,22,0)" xlink:href="#x"/><use transform="matrix(0.05,0,0,0.05,31,0)" xlink:href="#F"/><use transform="matrix(0.05,0,0,0.05,34.95,0)" xlink:href="#N"/><use transform="matrix(0.05,0,0,0.05,44.95,0)" xlink:href="#y"/><use transform="matrix(0.05,0,0,0.05,54.95,0)" xlink:href="#x"/><use transform="matrix(0.05,0,0,0.05,63.95,0)" xlink:href="#x"/><use transform="matrix(0.05,0,0,0.05,72.95,0)" xlink:href="#z"/><use transform="matrix(0.05,0,0,0.05,77.95,0)" xlink:href="#A"/><use transform="matrix(0.05,0,0,0.05,90.9,0)" xlink:href="#x"/><use transform="matrix(0.05,0,0,0.05,99.9,0)" xlink:href="#y"/><use transform="matrix(0.05,0,0,0.05,109.9,0)" xlink:href="#B"/></g><path d="M9 0v-24l116-142H16v-24h144v24L44-24h123V0H9" id="V"/><path d="M-5 72V49h209v23H-5" id="W"/><g id="k"><use transform="matrix(0.05,0,0,0.05,0,0)" xlink:href="#K"/><use transform="matrix(0.05,0,0,0.05,10,0)" xlink:href="#y"/><use transform="matrix(0.05,0,0,0.05,20,0)" xlink:href="#B"/><use transform="matrix(0.05,0,0,0.05,25.950000000000003,0)" xlink:href="#x"/><use transform="matrix(0.05,0,0,0.05,34.95,0)" xlink:href="#F"/><use transform="matrix(0.05,0,0,0.05,38.900000000000006,0)" xlink:href="#x"/><use transform="matrix(0.05,0,0,0.05,47.900000000000006,0)" xlink:href="#v"/><use transform="matrix(0.05,0,0,0.05,52.900000000000006,0)" xlink:href="#R"/><use transform="matrix(0.05,0,0,0.05,58.85,0)" xlink:href="#w"/><use transform="matrix(0.05,0,0,0.05,68.85000000000001,0)" xlink:href="#F"/><use transform="matrix(0.05,0,0,0.05,72.80000000000001,0)" xlink:href="#V"/><use transform="matrix(0.05,0,0,0.05,81.80000000000001,0)" xlink:href="#W"/><use transform="matrix(0.05,0,0,0.05,91.80000000000001,0)" xlink:href="#U"/><use transform="matrix(0.05,0,0,0.05,101.80000000000001,0)" xlink:href="#x"/><use transform="matrix(0.05,0,0,0.05,110.80000000000001,0)" xlink:href="#y"/><use transform="matrix(0.05,0,0,0.05,120.80000000000001,0)" xlink:href="#B"/><use transform="matrix(0.05,0,0,0.05,126.75,0)" xlink:href="#S"/><use transform="matrix(0.05,0,0,0.05,132.70000000000002,0)" xlink:href="#z"/><use transform="matrix(0.05,0,0,0.05,137.70000000000002,0)" xlink:href="#T"/><use transform="matrix(0.05,0,0,0.05,149.70000000000002,0)" xlink:href="#I"/><use transform="matrix(0.05,0,0,0.05,159.70000000000002,0)" xlink:href="#I"/><use transform="matrix(0.05,0,0,0.05,169.70000000000002,0)" xlink:href="#M"/><use transform="matrix(0.05,0,0,0.05,173.65,0)" xlink:href="#y"/><use transform="matrix(0.05,0,0,0.05,183.65,0)" xlink:href="#u"/><use transform="matrix(0.05,0,0,0.05,193.65,0)" xlink:href="#N"/></g><g id="l"><use transform="matrix(0.05,0,0,0.05,0,0)" xlink:href="#J"/><use transform="matrix(0.05,0,0,0.05,10,0)" xlink:href="#y"/><use transform="matrix(0.05,0,0,0.05,20,0)" xlink:href="#M"/><use transform="matrix(0.05,0,0,0.05,23.95,0)" xlink:href="#y"/><use transform="matrix(0.05,0,0,0.05,33.95,0)" xlink:href="#v"/><use transform="matrix(0.05,0,0,0.05,38.95,0)" xlink:href="#y"/><use transform="matrix(0.05,0,0,0.05,48.95,0)" xlink:href="#R"/><use transform="matrix(0.05,0,0,0.05,54.900000000000006,0)" xlink:href="#w"/><use transform="matrix(0.05,0,0,0.05,64.9,0)" xlink:href="#F"/><use transform="matrix(0.05,0,0,0.05,68.85000000000001,0)" xlink:href="#V"/><use transform="matrix(0.05,0,0,0.05,77.85000000000001,0)" xlink:href="#W"/><use transform="matrix(0.05,0,0,0.05,87.85000000000001,0)" xlink:href="#U"/><use transform="matrix(0.05,0,0,0.05,97.85000000000001,0)" xlink:href="#x"/><use transform="matrix(0.05,0,0,0.05,106.85000000000001,0)" xlink:href="#y"/><use transform="matrix(0.05,0,0,0.05,116.85000000000001,0)" xlink:href="#B"/><use transform="matrix(0.05,0,0,0.05,122.80000000000001,0)" xlink:href="#S"/><use transform="matrix(0.05,0,0,0.05,128.75,0)" xlink:href="#z"/><use transform="matrix(0.05,0,0,0.05,133.75,0)" xlink:href="#T"/><use transform="matrix(0.05,0,0,0.05,145.75,0)" xlink:href="#I"/><use transform="matrix(0.05,0,0,0.05,155.75,0)" xlink:href="#I"/><use transform="matrix(0.05,0,0,0.05,165.75,0)" xlink:href="#M"/><use transform="matrix(0.05,0,0,0.05,169.7,0)" xlink:href="#y"/><use transform="matrix(0.05,0,0,0.05,179.7,0)" xlink:href="#u"/><use transform="matrix(0.05,0,0,0.05,189.7,0)" xlink:href="#N"/></g><g id="m"><use transform="matrix(0.05,0,0,0.05,0,0)" xlink:href="#T"/><use transform="matrix(0.05,0,0,0.05,12,0)" xlink:href="#U"/><use transform="matrix(0.05,0,0,0.05,22,0)" xlink:href="#x"/><use transform="matrix(0.05,0,0,0.05,31,0)" xlink:href="#F"/><use transform="matrix(0.05,0,0,0.05,34.95,0)" xlink:href="#N"/><use transform="matrix(0.05,0,0,0.05,44.95,0)" xlink:href="#y"/><use transform="matrix(0.05,0,0,0.05,54.95,0)" xlink:href="#x"/><use transform="matrix(0.05,0,0,0.05,63.95,0)" xlink:href="#x"/><use transform="matrix(0.05,0,0,0.05,72.95,0)" xlink:href="#z"/><use transform="matrix(0.05,0,0,0.05,77.95,0)" xlink:href="#z"/><use transform="matrix(0.05,0,0,0.05,82.95,0)" xlink:href="#A"/><use transform="matrix(0.05,0,0,0.05,95.9,0)" xlink:href="#x"/><use transform="matrix(0.05,0,0,0.05,104.9,0)" xlink:href="#y"/><use transform="matrix(0.05,0,0,0.05,114.9,0)" xlink:href="#B"/></g><path d="M33 0v-248h34V0H33" id="X"/><path d="M177-190C167-65 218 103 67 71c-23-6-38-20-44-43l32-5c15 47 100 32 89-28v-30C133-14 115 1 83 1 29 1 15-40 15-95c0-56 16-97 71-98 29-1 48 16 59 35 1-10 0-23 2-32h30zM94-22c36 0 50-32 50-73 0-42-14-75-50-75-39 0-46 34-46 75s6 73 46 73" id="Y"/><g id="n"><use transform="matrix(0.05,0,0,0.05,0,0)" xlink:href="#F"/><use transform="matrix(0.05,0,0,0.05,3.95,0)" xlink:href="#J"/><use transform="matrix(0.05,0,0,0.05,13.949999999999998,0)" xlink:href="#z"/><use transform="matrix(0.05,0,0,0.05,18.95,0)" xlink:href="#X"/><use transform="matrix(0.05,0,0,0.05,23.95,0)" xlink:href="#N"/><use transform="matrix(0.05,0,0,0.05,33.95,0)" xlink:href="#v"/><use transform="matrix(0.05,0,0,0.05,38.95,0)" xlink:href="#y"/><use transform="matrix(0.05,0,0,0.05,48.95,0)" xlink:href="#Y"/><use transform="matrix(0.05,0,0,0.05,58.95,0)" xlink:href="#y"/><use transform="matrix(0.05,0,0,0.05,68.95,0)" xlink:href="#B"/></g><path d="M185-189c-5-48-123-54-124 2 14 75 158 14 163 119 3 78-121 87-175 55-17-10-28-26-33-46l33-7c5 56 141 63 141-1 0-78-155-14-162-118-5-82 145-84 179-34 5 7 8 16 11 25" id="Z"/><g id="o"><use transform="matrix(0.05,0,0,0.05,0,0)" xlink:href="#v"/><use transform="matrix(0.05,0,0,0.05,5,0)" xlink:href="#F"/><use transform="matrix(0.05,0,0,0.05,8.95,0)" xlink:href="#v"/><use transform="matrix(0.05,0,0,0.05,13.949999999999998,0)" xlink:href="#M"/><use transform="matrix(0.05,0,0,0.05,17.9,0)" xlink:href="#y"/><use transform="matrix(0.05,0,0,0.05,27.899999999999995,0)" xlink:href="#z"/><use transform="matrix(0.05,0,0,0.05,32.9,0)" xlink:href="#Z"/><use transform="matrix(0.05,0,0,0.05,44.9,0)" xlink:href="#v"/><use transform="matrix(0.05,0,0,0.05,49.9,0)" xlink:href="#B"/><use transform="matrix(0.05,0,0,0.05,55.85,0)" xlink:href="#F"/><use transform="matrix(0.05,0,0,0.05,59.800000000000004,0)" xlink:href="#N"/><use transform="matrix(0.05,0,0,0.05,69.80000000000001,0)" xlink:href="#Y"/></g><g id="p"><use transform="matrix(0.05,0,0,0.05,0,0)" xlink:href="#Q"/><use transform="matrix(0.05,0,0,0.05,5,0)" xlink:href="#F"/><use transform="matrix(0.05,0,0,0.05,8.95,0)" xlink:href="#B"/><use transform="matrix(0.05,0,0,0.05,14.899999999999999,0)" xlink:href="#x"/><use transform="matrix(0.05,0,0,0.05,23.9,0)" xlink:href="#v"/><use transform="matrix(0.05,0,0,0.05,28.899999999999995,0)" xlink:href="#W"/><use transform="matrix(0.05,0,0,0.05,38.9,0)" xlink:href="#N"/><use transform="matrix(0.05,0,0,0.05,48.9,0)" xlink:href="#u"/><use transform="matrix(0.05,0,0,0.05,58.900000000000006,0)" xlink:href="#L"/><use transform="matrix(0.05,0,0,0.05,73.85,0)" xlink:href="#y"/><use transform="matrix(0.05,0,0,0.05,83.85,0)" xlink:href="#z"/><use transform="matrix(0.05,0,0,0.05,88.85,0)" xlink:href="#Z"/><use transform="matrix(0.05,0,0,0.05,100.85,0)" xlink:href="#v"/><use transform="matrix(0.05,0,0,0.05,105.84999999999998,0)" xlink:href="#B"/><use transform="matrix(0.05,0,0,0.05,111.80000000000001,0)" xlink:href="#F"/><use transform="matrix(0.05,0,0,0.05,115.75,0)" xlink:href="#N"/><use transform="matrix(0.05,0,0,0.05,125.75,0)" xlink:href="#Y"/></g><use transform="matrix(0.05,0,0,0.05,0,0)" xlink:href="#P" id="q"/><g id="r"><use transform="matrix(0.05,0,0,0.05,0,0)" xlink:href="#M"/><use transform="matrix(0.05,0,0,0.05,3.95,0)" xlink:href="#u"/><use transform="matrix(0.05,0,0,0.05,13.949999999999998,0)" xlink:href="#x"/><use transform="matrix(0.05,0,0,0.05,22.95,0)" xlink:href="#v"/><use transform="matrix(0.05,0,0,0.05,27.950000000000003,0)" xlink:href="#W"/><use transform="matrix(0.05,0,0,0.05,37.95,0)" xlink:href="#N"/><use transform="matrix(0.05,0,0,0.05,47.95,0)" xlink:href="#u"/><use transform="matrix(0.05,0,0,0.05,57.95,0)" xlink:href="#L"/><use transform="matrix(0.05,0,0,0.05,72.9,0)" xlink:href="#y"/><use transform="matrix(0.05,0,0,0.05,82.9,0)" xlink:href="#z"/><use transform="matrix(0.05,0,0,0.05,87.9,0)" xlink:href="#Z"/><use transform="matrix(0.05,0,0,0.05,99.9,0)" xlink:href="#v"/><use transform="matrix(0.05,0,0,0.05,104.9,0)" xlink:href="#B"/><use transform="matrix(0.05,0,0,0.05,110.85000000000001,0)" xlink:href="#F"/><use transform="matrix(0.05,0,0,0.05,114.80000000000001,0)" xlink:href="#N"/><use transform="matrix(0.05,0,0,0.05,124.80000000000001,0)" xlink:href="#Y"/></g><g id="s"><use transform="matrix(0.05,0,0,0.05,0,0)" xlink:href="#Q"/><use transform="matrix(0.05,0,0,0.05,5,0)" xlink:href="#U"/><use transform="matrix(0.05,0,0,0.05,15,0)" xlink:href="#M"/><use transform="matrix(0.05,0,0,0.05,18.95,0)" xlink:href="#M"/><use transform="matrix(0.05,0,0,0.05,22.9,0)" xlink:href="#W"/><use transform="matrix(0.05,0,0,0.05,32.9,0)" xlink:href="#N"/><use transform="matrix(0.05,0,0,0.05,42.9,0)" xlink:href="#u"/><use transform="matrix(0.05,0,0,0.05,52.900000000000006,0)" xlink:href="#L"/><use transform="matrix(0.05,0,0,0.05,67.85,0)" xlink:href="#y"/><use transform="matrix(0.05,0,0,0.05,77.85,0)" xlink:href="#z"/><use transform="matrix(0.05,0,0,0.05,82.85,0)" xlink:href="#Z"/><use transform="matrix(0.05,0,0,0.05,94.85,0)" xlink:href="#v"/><use transform="matrix(0.05,0,0,0.05,99.85,0)" xlink:href="#B"/><use transform="matrix(0.05,0,0,0.05,105.80000000000001,0)" xlink:href="#F"/><use transform="matrix(0.05,0,0,0.05,109.75,0)" xlink:href="#N"/><use transform="matrix(0.05,0,0,0.05,119.75,0)" xlink:href="#Y"/></g></defs></g></svg>